<svg width="103" height="97" viewBox="0 0 103 97" fill="none" xmlns="http://www.w3.org/2000/svg">
<path opacity="0.1" fill-rule="evenodd" clip-rule="evenodd" d="M95.4965 6.52514C92.8959 10.4122 89.5769 13.7626 85.7193 16.3948C88.5911 11.4548 89.4231 5.58284 88.0371 0.0350567C85.4911 4.65357 82.1685 8.79528 78.2163 12.2771C69.1233 9.5222 59.2756 12.6024 53.3507 20.0546C47.4257 27.5067 46.6175 37.8292 51.31 46.119C52.3204 47.8827 53.4802 49.0908 54.2886 50.5017C37.6761 59.2025 18.1142 60.2154 0.698271 53.2767C0.717174 57.5584 1.83724 61.7626 3.94999 65.482C7.80688 72.368 14.9257 76.7734 22.7869 77.1389C19.5302 78.8725 15.9205 79.8324 12.2359 79.9445L12.438 80.2973C17.9364 89.9222 29.4551 94.2902 39.9195 90.7185C38.4235 92.1251 36.7934 93.3806 35.0528 94.4672C33.7876 95.2748 32.4194 95.9068 30.9854 96.3461C38.4334 103.035 49.2676 104.298 58.0445 99.5004C54.1234 109.219 47.1336 117.377 38.1479 122.723C36.5336 123.733 34.8167 124.567 33.0263 125.211C45.6601 125.804 58.2031 122.794 69.2035 116.529C106.451 95.0239 108.696 52.4185 93.5392 25.9627L92.1245 23.4935C93.9544 18.0021 95.0873 12.301 95.4965 6.52514Z" fill="#80829E"/>
</svg>
